<?xml version="1.0" encoding="UTF-8" standalone="no"?>
<svg
   xmlns:dc="http://purl.org/dc/elements/1.1/"
   xmlns:cc="http://creativecommons.org/ns#"
   xmlns:rdf="http://www.w3.org/1999/02/22-rdf-syntax-ns#"
   xmlns:svg="http://www.w3.org/2000/svg"
   xmlns="http://www.w3.org/2000/svg"
   xmlns:sodipodi="http://sodipodi.sourceforge.net/DTD/sodipodi-0.dtd"
   xmlns:inkscape="http://www.inkscape.org/namespaces/inkscape"
   width="260.32822"
   height="253.35674"
   id="svg2"
   version="1.1"
   inkscape:version="0.48.4 r9939"
   sodipodi:docname="franceLogo.svg">
  <metadata
     id="metadata43">
    <rdf:RDF>
      <cc:Work
         rdf:about="">
        <dc:format>image/svg+xml</dc:format>
        <dc:type
           rdf:resource="http://purl.org/dc/dcmitype/StillImage" />
        <dc:title></dc:title>
      </cc:Work>
    </rdf:RDF>
  </metadata>
  <defs
     id="defs41" />
  <sodipodi:namedview
     pagecolor="#535353"
     bordercolor="#666666"
     borderopacity="1"
     objecttolerance="10"
     gridtolerance="10"
     guidetolerance="10"
     inkscape:pageopacity="0"
     inkscape:pageshadow="2"
     inkscape:window-width="1920"
     inkscape:window-height="1031"
     id="namedview39"
     showgrid="false"
     inkscape:zoom="2.6124924"
     inkscape:cx="175.38389"
     inkscape:cy="137.94802"
     inkscape:window-x="1353"
     inkscape:window-y="-7"
     inkscape:window-maximized="1"
     inkscape:current-layer="Regions"
     fit-margin-top="0"
     fit-margin-left="0"
     fit-margin-right="0"
     fit-margin-bottom="0" />
  <g
     id="Regions"
     transform="matrix(0.195088,0,0,0.195088,-91.847518,-47.325691)">
    <path
       style="fill:#e6e6e6"
       d="m 236.40625,6.5625 c -1.08709,0.4857067 -2.0975,0.9508957 -3.1875,1.125 -0.39076,-0.1338206 -0.74478,0.086876 -1.0625,-0.15625 -0.82013,0.2206133 -1.60783,0.5967638 -2.46875,0.65625 -0.48557,0.2076146 -0.93721,0.4954666 -1.46875,0.59375 -0.58944,0.3204379 -1.29098,0.049384 -1.90625,0.21875 -0.64996,0.048725 -1.26275,0.272775 -1.90625,0.34375 -0.36835,0.00386 -0.7597,0.2030112 -1.09375,0.40625 -0.63265,-0.043071 -1.12795,0.382982 -1.71875,0.5 -0.59687,0.173297 -1.22934,0.419968 -1.65625,0.90625 -0.73289,0.431747 -1.02966,1.440179 -1.9375,1.59375 -0.30188,0.1104 -0.8534,-0.01178 -0.9375,0.375 0.1977,0.940104 0.71815,1.891909 0.46875,2.875 -0.0174,0.79893 -0.80619,1.343223 -0.71875,2.15625 0.11085,0.997684 0.33909,1.992571 0.28125,3 -0.0866,0.43808 0.19869,0.7199 0.46875,1 0.3844,0.5453 -0.30225,0.148236 -0.4375,0.46875 -0.11239,1.093466 -0.0642,2.200498 -0.28125,3.28125 -0.18922,0.349566 -0.20781,0.81423 0.1875,1.03125 0.17222,0.07757 0.39149,0.136724 0.53125,0.25 l 0.25,0.09375 0,0.65625 c -1.02553,-0.543382 -1.73379,-0.896345 -1.4375,2.3125 6.56141,2.94643 -4.2534,1.733802 -2.46875,5.78125 0.53083,-0.125008 0.80137,0.09813 1.03125,0.4375 l -0.34375,0.40625 c -0.19223,-0.205134 -0.35569,-0.401328 -0.46875,-0.59375 -6.06136,4.921017 -15.57677,4.548622 -22.40625,9.28125 -7.75326,3.289971 -3.35559,8.10416 0.0937,8.875 l -0.53125,0.53125 c -0.23142,-0.323457 -0.65948,-0.433763 -1.46875,-0.09375 -7.19902,7.286658 -16.14653,1.068715 -24.75,0.875 -2.80262,3.323736 -8.13611,-5.454762 -4.71875,-6.28125 0.69755,-5.709471 -7.33427,0.704738 -10.96875,-2.28125 -5.30078,-3.146963 0.48866,5.37278 -0.1875,9.03125 3.49953,-0.05653 1.5413,4.348843 5.09375,4.46875 -2.14002,4.251071 0.32352,5.718001 -0.0312,6.84375 -0.56223,3.489851 -1.05977,8.783439 4.03125,9.90625 -1.49323,-0.157268 -2.64976,0.706587 -4.15625,0.125 0.39271,0.481454 0.64197,1.055216 0.84375,1.625 l -0.3125,0.03125 c -0.33722,-1.04594 -0.829,-1.767581 -2.25,-0.9375 -4.2786,1.654056 -4.8946,-5.826507 -7.34375,-0.34375 1.95152,1.8377 1.03573,4.897143 -0.21875,0.34375 -2.74847,-2.278242 -2.63317,2.832891 -4.28125,-0.21875 -1.05379,-1.236222 -3.04306,-1.995228 -6.15625,0.71875 -3.13832,5.050741 -4.09395,0.009 -6.75,-2.46875 -1.57559,-5.142988 -2.8163,-6.322338 -3.90625,-4.1875 -2.71282,-0.804631 -1.64567,-0.683635 -5.9375,0.15625 -2.09667,-0.588805 -4.54494,0.396864 -4.125,3.0625 0.3019,2.790502 -5.49906,-2.091654 -5.5,1.1875 -0.38164,3.492756 -2.36477,-3.830365 -4.09375,-0.125 -3.3997,0.558742 -4.6758,0.47867 -7,1.21875 -4.211454,-0.135935 -2.223666,2.360132 -5.25,1.96875 -2.447176,0.562979 -3.324608,6.562889 -0.53125,6.75 4.297979,-0.799404 8.98441,-3.734259 5.8125,-0.28125 -1.316557,-0.261794 -2.489564,-0.277554 -2.5625,0.53125 -2.513836,-0.533796 -0.28187,6.560992 1.15625,2.5625 5.57228,0.619943 4.40711,5.423353 -1.09375,4.5 -7.13002,1.021929 -0.299523,1.592835 2.1875,3.46875 -0.583727,5.87668 4.7564,0.783489 5.25,2.9375 0.35113,-2.516381 4.66839,-1.495086 3.84375,-0.3125 1.11951,-0.675586 3.61951,3.76997 6.5,2.53125 2.85739,3.69328 7.97834,0.11261 6.09375,1.65625 -0.63589,1.21202 3.56577,3.29163 3.15625,-0.3125 2.27525,0.31824 -1.05427,4.19062 1.03125,7.5 -0.15061,-2.10599 5.02145,-1.48988 3.25,-2.84375 0.22028,-2.58674 0.038,0.46469 3.8125,-1.34375 0.40543,0.19326 3.77054,-0.0328 0.125,2.3125 -3.11651,-1.51065 -2.63257,2.06431 1.40625,1.21875 2.79358,-1.62316 1.58074,-0.20536 6.78125,0.0937 -1.14447,-0.0801 -3.94655,0.23097 -1.875,1.46875 0.41462,-2.00041 2.80545,0.58817 3.15625,-1.4375 l 0.0937,0.21875 c -0.4841,0.59142 -1.08198,1.63099 -2.1875,1 -1.47017,0.20865 1.35175,2.28904 -2.625,2.15625 3.00085,2.96684 -1.73824,2.4293 4.0625,3.65625 2.0159,-3.40725 13.56421,0.2478 10.40625,1.09375 -2.45416,-3.43414 -7.77773,-1.9437 -8.09375,2.03125 7.19862,1.17952 0.59042,6.46028 3.15625,10.46875 5.07086,3.3714 3.80184,8.41898 7.8125,9.75 2.78695,1.36782 6.27185,3.2147 8.84375,5.09375 0.6122,-0.25663 0.44579,-2.33754 2.15625,-1.1875 0.7304,-0.6131 2.1254,-1.5117 3.4375,-1.65625 l 0.0937,0.71875 c -0.18258,-0.31621 -0.46826,-0.50498 -1.28125,-0.125 -2.44849,0.93588 -2.06482,3.09658 -3.8125,4.9375 1.94841,-1.36744 6.33588,18.53235 2.28125,6.875 -3.11637,2.81387 4.49637,9.11433 -1.59375,4.34375 -4.63021,3.74821 7.22921,5.83584 8.375,10.84375 l 0.6875,2.21875 0,0.125 c 0.52465,0.44692 1.13018,0.34837 1.65625,0.1875 l 0.0312,0.40625 c -0.51046,0.17313 -1.08687,0.25458 -1.59375,-0.25 0.99511,8.7981 3.57462,7.84331 3.0625,10.6875 -3.20032,-4.96532 -6.06641,-16.28583 -10.96875,-16.75 -1.24,5.45911 -3.26593,23.90393 -2.6875,24.5 4.73889,-4.16685 3.38507,1.89504 -0.0937,3.5625 -2.3309,10.77198 -0.42541,25.60895 -8.8125,33.59375 -4.7852,4.64602 7.70401,1.17733 6.03125,6.375 -2.42041,7.01946 2.24747,-0.60459 4.53125,4.0625 3.90259,2.67955 8.60884,1.25081 10.625,5.125 1.46434,2.95281 3.93447,1.62098 6.46875,0.84375 -0.0933,-0.30202 -0.12414,-0.64792 -0.125,-1 l 0.53125,-0.0625 c 0.76252,1.34735 3.26293,2.72534 3.0625,2.65625 3.13277,4.40074 8.75939,0.84035 12.4375,2.46875 6.41159,2.57225 1.5727,-5.60262 6.75,-4.25 4.43421,2.23518 8.631,2.70272 12.0625,5.21875 0.56139,2.37652 4.96903,-1.15673 7.46875,2.3125 0.3598,-0.0257 0.62356,-0.0937 0.875,-0.1875 l 0.21875,0.28125 c -0.37235,0.15292 -0.77835,0.27677 -1.34375,0.3125 -0.19337,2.8542 5.95474,7.83082 9.3125,4.28125 3.89037,-0.002 8.39544,5.22496 9.96875,0.21875 2.20428,-3.53258 10.50975,1.43784 8.1875,-2.34375 -2.91588,-4.51919 -1.32461,-7.07872 -2.59375,-10.5625 0.98307,-3.2932 1.57763,-2.93539 1.6875,-7.46875 0.43708,1.23836 7.22278,-5.74995 10.0625,-7.46875 4.52639,-2.22439 9.2509,-7.5673 1.75,-1.6875 0.43123,-1.31483 4.09226,-3.29171 5.96875,-4.15625 0.34832,-0.45989 0.65129,-0.5504 0.96875,-0.40625 0.11976,-0.0362 0.15781,-0.0249 0.0937,0.0312 1.03345,0.59823 2.00013,3.51766 3.40625,3.71875 -0.16126,-0.82707 0.36787,-1.37365 0.9375,-1.75 l 0.625,0.0937 c -0.46629,0.31946 -0.90249,0.67436 -1.25,1.09375 5.24654,-1.0246 7.67583,5.63369 11.25,2.96875 -5.88058,-9.33104 -1.04396,-3.48125 1.03125,-0.8125 5.48211,1.73049 1.79083,-5.69991 5.125,-2.875 5.93206,1.13469 -7.52914,5.91531 2.84375,4.84375 2.68242,0.94807 3.42281,5.57507 8.59375,4.53125 2.34911,1.3092 2.37006,4.92212 4.78125,2.8125 -0.68852,-2.53271 4.42566,1.28975 4.59375,1.15625 1.08135,-3.31663 4.22569,-0.78796 6.84375,-3.375 3.63905,0.49892 0.28318,-4.06787 2.4375,-3.78125 1.97862,-3.6611 5.88694,-3.18718 7.4375,-7.21875 3.54455,-0.36076 4.46761,-4.88411 7.46875,-5.0625 3.46742,-1.01953 2.35922,-3.33622 4.5625,-6.90625 3.19656,-1.49012 2.85017,-8.69262 -0.9375,-5.625 -4.20036,2.19552 -7.41942,-2.25022 -11.125,-3.21875 -2.91284,-4.3077 -2.51648,-7.39203 -0.34375,-11.9375 4.79128,-1.59697 -0.92211,-6.5129 -4.4375,-7.21875 1.15621,-3.50837 -2.07587,-2.5182 -2.40625,-5.46875 -3.56521,0.27697 -0.52777,0.63559 -3.34375,1.8125 -0.72716,-0.11208 -1.19881,-0.38162 -1.5625,-0.6875 l -0.0312,-0.0937 c 0.31234,0.0605 0.66622,0.11324 1.15625,0.15625 1.07665,0.15564 1.47537,-1.72888 3.15625,-1.625 3.64744,-0.77967 6.1768,0.21996 8.8125,-2.78125 2.81688,-0.7299 3.74077,-7.10057 -0.59375,-8.34375 1.25286,-4.68982 -7.0522,-5.89096 -2.71875,-9.8125 6.32581,-2.01398 -0.24584,-8.16775 -0.71875,-8.28125 0.98004,-5.6712 -2.12934,-12.57336 -10.3125,-7.625 -2.62596,2.928 0.70028,7.09315 -5.4375,7.46875 -5.40228,-0.56038 6.35308,-5.12575 0.625,-8.09375 -0.1779,0.1519 -0.33808,0.32504 -0.5,0.5 l -0.1875,-0.375 c 2.44549,-3.37107 2.49594,-7.46268 7.375,-9.53125 0.079,-5.25818 4.45792,-7.37015 7.59375,-11 3.49742,-3.35761 6.59921,-7.26577 2.46875,-7.65625 1.92351,-1.67166 1.06505,-3.73259 4.28125,-3.125 0.14871,-0.52611 -4.3e-4,-1.1238 -0.28125,-1.625 l 0.25,0 c 0.002,0.0102 -0.002,0.021 0,0.0312 0.86639,2.02687 1.37399,1.71534 1.125,2.9375 2.83958,2.26177 8.32506,-2.38529 6.53125,-2.53125 2.44553,-2.30765 -1.02448,-7.29305 1.53125,-11.28125 -0.93814,-5.491799 3.28391,-10.796474 4.15625,-16.53125 0.0959,-5.996 7.38712,-8.424358 8.34375,-13.5625 -4.07,-1.437682 -6.89222,-2.68654 -11.21875,-2.21875 -0.16669,0.208425 -0.32396,0.459355 -0.46875,0.75 L 337.875,66.25 c 0.93549,-2.422457 -2.10052,-0.935304 -2.125,-3.5 -2.14777,-0.234102 -7.52869,0.725153 -8.875,1.0625 -1.69489,-6.736658 -6.37958,2.050275 -7.4375,-3.8125 -2.36244,-3.565549 -3.56861,-6.661743 -8.59375,-7.40625 -4.06226,1.641681 -6.53047,1.33863 -10.0625,-1.4375 -3.35069,0.347998 -5.56205,3.046203 -7,-1.90625 -0.27517,0.252167 -0.57934,0.575375 -0.875,0.875 L 292.375,49.78125 c 0.004,-0.01099 -0.004,-0.02007 0,-0.03125 2.39685,-0.374366 0.89461,-2.508566 -0.15625,-1.5625 -2.68699,-2.547563 -8.14228,-3.017408 -9.53125,-5.96875 -0.39178,-2.868063 -0.70707,-5.388229 0.71875,-8.25 -4.19584,-1.883625 -3.61177,7.325722 -9.15625,5.8125 -1.26033,-0.174596 -2.3991,-1.034153 -3.71875,-0.5625 -0.29101,0.568278 -0.15676,1.066892 0.0312,1.5625 L 270.125,40.6875 c -0.0725,-0.05997 -0.15322,-0.134591 -0.25,-0.1875 0.48813,-1.451882 0.29544,-1.285329 -1.15625,-1.71875 -0.5087,0.178843 -1.27634,0.201317 -1.96875,0.09375 l -0.21875,-0.5 0.0625,0 0.625,0.125 0.0937,0.03125 0.0937,0.09375 0.0625,0.15625 0.1875,-0.03125 0.0312,0 0.0625,0 0.59375,-0.15625 0.40625,-0.1875 c 0.0635,-0.173845 0.0526,-0.369417 -0.1875,-0.53125 -0.20422,-0.348891 0.1264,-0.754856 0.375,-0.96875 0.46503,0.134187 0.56382,-0.367905 0.875,-0.53125 0.41089,-0.0047 0.56054,-0.438767 0.21875,-0.6875 -0.31177,-0.300607 -0.49295,-0.705734 -0.34375,-1.125 0.0547,-0.433885 -0.66376,-0.438996 -0.875,-0.1875 -0.56242,0.130174 -0.33017,-0.341911 -0.34375,-0.65625 0.43085,-0.125354 0.19538,-0.590241 0.375,-0.90625 0.22976,-0.260975 -0.25884,-0.799272 0.21875,-0.84375 0.21819,-0.322861 0.36988,-0.737049 0.8125,-0.84375 0.5082,-0.325126 -0.096,-0.925532 -0.53125,-0.90625 -0.13034,-0.467288 -0.68394,-0.253872 -0.375,0.15625 0.19417,0.402566 -0.64296,0.445974 -0.5,-0.03125 -0.39511,-0.206883 -0.14464,-0.771013 -0.59375,-0.96875 -0.20679,-0.343601 -0.60852,-0.204568 -0.78125,-0.5625 -0.42469,-0.168168 -0.50222,-0.623038 -0.71875,-0.96875 -0.46043,0.167721 -0.90573,0.409369 -1.40625,0.375 -0.42902,0.199694 -0.91683,0.509571 -1.40625,0.34375 -0.1209,-0.38193 -0.60448,-0.274957 -0.8125,-0.59375 -0.34753,-0.155739 -0.62007,0.226712 -0.96875,0 -0.3933,0.06118 -0.8104,-0.131903 -1.15625,0.15625 -0.33781,0.169028 -0.30162,0.665128 -0.40625,1 -0.45479,-0.435813 -0.25906,0.544857 -0.71875,0 -0.35769,-0.495767 -0.42812,-1.109569 -0.625,-1.65625 0.23055,-0.376742 0.38052,-0.813951 0.1875,-1.25 -0.0432,-0.389146 0.0836,-0.83438 -0.21875,-1.15625 -0.0913,-0.352877 -0.59392,-0.442542 -0.65625,-0.84375 -0.15931,-0.239508 -0.54053,-0.639051 -0.78125,-0.28125 -0.45278,-0.310012 -1.00711,-0.221387 -1.46875,0.03125 -0.50325,-0.047 -0.17098,-0.622578 0.0312,-0.8125 -0.14193,-0.183773 -0.7748,-0.523161 -0.9375,-0.21875 -0.13678,0.387168 -0.45529,0.546125 -0.84375,0.53125 -0.44037,0.03101 -0.81755,0.335777 -1.25,0.34375 -0.26618,-0.35926 -0.7335,-0.375419 -1.0625,-0.65625 -0.37037,-0.06313 -0.48741,-0.452726 -0.71875,-0.65625 -0.0469,-0.504784 0.10608,-1.022064 0.0625,-1.53125 -0.0431,-0.423593 -0.53479,-0.627961 -0.46875,-1.0625 -0.0899,-0.391124 -0.35872,-0.790404 -0.25,-1.1875 0.46942,-0.171318 0.18254,-0.453535 0.0625,-0.75 0.16502,-0.425938 -0.36578,-0.586139 -0.6875,-0.5 -0.30321,-0.201387 -0.35004,-0.534326 -0.5,-0.8125 -0.13444,-0.419189 -0.42017,-0.750645 -0.53125,-1.1875 -0.25802,-0.287449 -0.87012,-0.268518 -1.09375,-0.125 -0.19938,0.354649 -0.68669,0.424621 -1,0.21875 -0.38551,0.0089 -0.58877,0.431089 -1,0.34375 -0.30547,0.08098 -0.55625,0.434045 -0.84375,0.375 -0.2413,-0.199745 -0.71294,0.29228 -0.4375,0.5 -0.34291,0.186951 -0.12018,0.672301 -0.5,0.84375 -0.21665,0.580711 -0.41974,0.202309 -0.6875,-0.0625 -0.41068,0.09933 -0.57041,-0.321707 -0.875,-0.4375 -0.51882,0.258111 -1.28761,-0.101128 -1.125,-0.75 -0.35447,-0.165013 -0.51345,-0.41068 -0.5625,-0.78125 -0.35803,-0.09831 -0.59291,-0.337027 -0.78125,-0.625 0.24242,-0.552152 -0.5026,-0.553365 -0.84375,-0.59375 -0.24632,-0.164102 -0.6121,0.4306 -0.875,0 -0.15383,-0.292585 -0.0933,-0.756687 -0.53125,-0.8125 -0.0343,-0.317595 0.26556,-0.674111 0.125,-1.0625 -0.0694,-0.346338 -0.0757,-0.715425 -0.375,-0.9375 0.0941,-0.334925 0.49283,-0.514194 0.59375,-0.84375 0.3948,-0.06821 0.0282,-0.645663 -0.15625,-0.8125 -0.0648,-0.3925073 -0.27171,-0.59909 -0.65625,-0.6875 -0.39406,-0.4956367 -0.31467,-1.2511331 -0.5,-1.84375 -0.0382,-0.2903943 -0.11113,-0.5941517 -0.3125,-0.8125 z M 266.75,223.6875 c -0.0275,-0.0159 -0.0661,-0.0187 -0.0937,-0.0312 -0.17287,0.0523 -0.52605,0.20229 -0.96875,0.40625 -0.088,0.11615 -0.19013,0.24004 -0.28125,0.40625 0.84477,-0.4405 1.23278,-0.68392 1.34375,-0.78125 z M 98.84375,86 c 0.53318,0.0431 0.487448,0.452356 1.75,1.03125 1.01468,0.479801 -0.947529,-0.370563 -2.90625,-0.84375 0.490294,-0.106216 0.947079,-0.204411 1.15625,-0.1875 z"
       transform="matrix(5.1258919,0,0,5.1258919,11.633107,208.94771)"
       id="Nord-Pas-de-Calais"
       inkscape:connector-curvature="0"
       inkscape:export-filename="C:\wamp\www\projet_transversal\web\img\franceLogo.png"
       inkscape:export-xdpi="22.024286"
       inkscape:export-ydpi="22.024286" />
  </g>
</svg>
